<svg width="360" height="2174" viewBox="0 0 360 2174" fill="none" xmlns="http://www.w3.org/2000/svg">
<path d="M5.99987 1.5C205.167 -2.33333 519.9 39.7 185.5 238.5C-148.9 437.3 46.1665 642.667 185.5 720.5C243.5 744.5 352.9 803 326.5 845C293.5 897.5 -4.00774 926.392 33 1020C58.5 1084.5 160 1169 185.5 1210.5C257.5 1244.83 391.6 1327.3 352 1382.5C302.5 1451.5 60 1470 46.5 1544.5C35.7 1604.1 134.667 1670 185.5 1695.5C282 1724.5 414.4 1824.5 316 1878.5C193 1946 15 1947.5 15 2011.5C15 2060.47 133.167 2128.5 185.5 2173.5" stroke="#6E93DD" stroke-opacity="0.16" stroke-dasharray="8 8"/>
</svg>
